Coordinates
version=1
nRows=24
nColumns=38
inDegrees=no

Units are S.I. units (second, meters, Newtons, ...)
If the header above contains a line with 'inDegrees', this indicates whether rotational values are in degrees (yes) or radians (no).

endheader
time	pelvis_tilt	pelvis_list	pelvis_rotation	pelvis_tx	pelvis_ty	pelvis_tz	hip_flexion_r	hip_adduction_r	hip_rotation_r	knee_angle_r	ankle_angle_r	subtalar_angle_r	mtp_angle_r	hip_flexion_l	hip_adduction_l	hip_rotation_l	knee_angle_l	ankle_angle_l	subtalar_angle_l	mtp_angle_l	lumbar_extension	lumbar_bending	lumbar_rotation	arm_flex_r	arm_add_r	arm_rot_r	elbow_flex_r	pro_sup_r	wrist_flex_r	wrist_dev_r	arm_flex_l	arm_add_l	arm_rot_l	elbow_flex_l	pro_sup_l	wrist_flex_l	wrist_dev_l
2.22	2.51663	1.44913	-0.848171	0.602076	1.57596	0.924587	0.285499	-0.0141744	-0.215818	0.254124	-0.327267	0	0	-0.412019	-0.0889649	-0.298419	0.160627	-0.1675	0	0	-0.133221	0.0882624	-0.170539	-0.254302	-0.287564	-0.132047	0.75184	0.411964	0	0	0.193402	-0.282456	0.253685	0.815326	1.4552	0	0
2.23	2.4905	1.44645	-0.817559	0.602922	1.5876	0.924476	0.283988	-0.00735744	-0.21816	0.266808	-0.340383	0	0	-0.409721	-0.103099	-0.315822	0.192586	-0.168896	0	0	-0.133432	0.0941798	-0.185248	-0.248117	-0.275433	-0.155759	0.747867	0.453943	0	0	0.169935	-0.276712	0.215126	0.821897	1.47721	0	0
2.24	2.46748	1.44391	-0.789151	0.603732	1.59946	0.924543	0.280377	-0.00156446	-0.223679	0.274587	-0.371904	0	0	-0.406274	-0.11786	-0.330954	0.225846	-0.178233	0	0	-0.132691	0.0988849	-0.206005	-0.237332	-0.293691	-0.0959137	0.741591	0.406565	0	0	0.140288	-0.271096	0.16874	0.831606	1.50096	0	0
2.25	2.46146	1.44051	-0.777403	0.604705	1.61145	0.924801	0.273531	0.00309044	-0.234354	0.284309	-0.389822	0	0	-0.404551	-0.132021	-0.340676	0.258384	-0.186199	0	0	-0.129602	0.102077	-0.201685	-0.249779	-0.278886	-0.135329	0.74275	0.435398	0	0	0.142961	-0.268605	0.191021	0.809971	1.48167	0	0
2.26	2.44391	1.4383	-0.755273	0.605907	1.62363	0.925116	0.267295	0.00866314	-0.245802	0.293638	-0.407202	0	0	-0.398884	-0.147058	-0.349192	0.294414	-0.199053	0	0	-0.126509	0.105413	-0.210561	-0.250085	-0.279256	-0.127463	0.73904	0.430511	0	0	0.125685	-0.26399	0.173423	0.804581	1.48791	0	0
2.27	2.42129	1.43629	-0.729744	0.607239	1.63581	0.925533	0.263015	0.0141501	-0.257826	0.308258	-0.417922	0	0	-0.390758	-0.162086	-0.354847	0.332793	-0.21644	0	0	-0.123055	0.109099	-0.218693	-0.249228	-0.279861	-0.11954	0.734166	0.427353	0	0	0.107006	-0.258367	0.152743	0.798824	1.49642	0	0
2.28	2.39209	1.43468	-0.699634	0.608733	1.64797	0.926029	0.262054	0.0191725	-0.268075	0.329488	-0.421084	0	0	-0.379839	-0.17673	-0.356443	0.373386	-0.240834	0	0	-0.118942	0.112921	-0.226185	-0.246766	-0.280867	-0.110369	0.727625	0.424468	0	0	0.0865518	-0.251381	0.127299	0.792884	1.51073	0	0
2.29	2.36528	1.43208	-0.673862	0.610469	1.66008	0.926762	0.261041	0.0249277	-0.274166	0.353085	-0.416001	0	0	-0.368138	-0.191088	-0.353418	0.415665	-0.268781	0	0	-0.115875	0.116886	-0.231021	-0.244187	-0.281827	-0.10137	0.720563	0.422712	0	0	0.0669988	-0.243832	0.102214	0.78499	1.52853	0	0
2.3	2.34644	1.42748	-0.657217	0.612453	1.67203	0.927821	0.257798	0.0319435	-0.279292	0.376797	-0.406319	0	0	-0.356053	-0.206152	-0.346148	0.461239	-0.300484	0	0	-0.115229	0.121482	-0.233934	-0.241328	-0.282466	-0.092819	0.713561	0.421247	0	0	0.0487709	-0.235965	0.0773067	0.775585	1.54742	0	0
2.31	2.3387	1.42027	-0.652024	0.614615	1.68377	0.929224	0.249291	0.0409478	-0.284444	0.395113	-0.397814	0	0	-0.343823	-0.222358	-0.33384	0.510708	-0.332159	0	0	-0.118912	0.12755	-0.233838	-0.240187	-0.282226	-0.0882959	0.709339	0.418756	0	0	0.0332662	-0.228679	0.0562225	0.76551	1.56382	0	0
2.32	2.33209	1.4125	-0.648337	0.616859	1.69531	0.930682	0.237402	0.051027	-0.290729	0.407241	-0.389176	0	0	-0.32858	-0.238824	-0.316914	0.564307	-0.367405	0	0	-0.123324	0.133924	-0.233396	-0.239114	-0.28148	-0.08571	0.705861	0.414989	0	0	0.0176301	-0.221983	0.036152	0.756168	1.5708	0	0
2.33	2.32405	1.40548	-0.643302	0.619166	1.70667	0.93202	0.223919	0.0606507	-0.299662	0.415484	-0.37741	0	0	-0.308938	-0.254367	-0.295761	0.620877	-0.415361	0	0	-0.127307	0.140116	-0.230762	-0.240728	-0.256015	-0.153775	0.703181	0.488206	0	0	0.00366505	-0.216672	0.0223271	0.746464	1.5708	0	0
2.34	2.30697	1.40063	-0.629618	0.621508	1.71784	0.933011	0.211824	0.0691531	-0.309958	0.421669	-0.365146	0	0	-0.283049	-0.268085	-0.271109	0.68084	-0.457776	0	0	-0.12836	0.144814	-0.2316	-0.239679	-0.273927	-0.0985406	0.702777	0.431079	0	0	-0.01439	-0.212074	0.0041158	0.740571	1.5708	0	0
2.35	2.2877	1.39786	-0.61375	0.623799	1.72878	0.933684	0.200642	0.075982	-0.320238	0.426211	-0.353842	0	0	-0.252363	-0.279197	-0.245236	0.743856	-0.480495	0	0	-0.127037	0.148422	-0.226755	-0.244769	-0.270604	-0.106881	0.705188	0.436552	0	0	-0.0264363	-0.208408	-0.0032899	0.729375	1.5708	0	0
2.36	2.26942	1.39636	-0.598577	0.625891	1.73948	0.934166	0.19049	0.0810654	-0.330773	0.431094	-0.342699	0	0	-0.218688	-0.288297	-0.221146	0.808609	-0.494199	0	0	-0.125062	0.151	-0.221969	-0.25024	-0.267237	-0.116914	0.708685	0.44192	0	0	-0.0384886	-0.204804	-0.0104161	0.719205	1.5708	0	0
2.37	2.26278	1.39393	-0.594474	0.627718	1.7499	0.934833	0.177006	0.086493	-0.339271	0.431461	-0.338529	0	0	-0.186433	-0.295966	-0.198812	0.872907	-0.499824	0	0	-0.126097	0.153564	-0.217168	-0.254566	-0.266269	-0.120349	0.712152	0.441106	0	0	-0.049854	-0.20156	-0.0163713	0.710233	1.5708	0	0
2.38	2.25453	1.39297	-0.588787	0.629405	1.76018	0.935557	0.164727	0.0917043	-0.342548	0.430651	-0.329458	0	0	-0.152074	-0.302368	-0.179767	0.936578	-0.507513	0	0	-0.125804	0.154995	-0.213101	-0.25678	-0.267443	-0.116643	0.712614	0.435705	0	0	-0.0611667	-0.198155	-0.0228476	0.700586	1.5708	0	0
2.39	2.25452	1.39263	-0.59204	0.631166	1.77045	0.936623	0.149884	0.0974837	-0.337288	0.424513	-0.323022	0	0	-0.119305	-0.307333	-0.165278	0.996133	-0.518078	0	0	-0.126542	0.154519	-0.207794	-0.257659	-0.267623	-0.114045	0.710155	0.433112	0	0	-0.0717585	-0.19564	-0.027537	0.690442	1.5708	0	0
2.4	2.27119	1.39191	-0.609042	0.632557	1.78043	0.938091	0.130808	0.102031	-0.330061	0.414594	-0.317668	0	0	-0.0878658	-0.310011	-0.148951	1.05242	-0.524916	0	0	-0.13025	0.152736	-0.204542	-0.25676	-0.26654	-0.112132	0.70557	0.430843	0	0	-0.0809338	-0.194286	-0.0303941	0.68051	1.5708	0	0
2.41	2.30421	1.39019	-0.639024	0.633463	1.79	0.939877	0.106984	0.105039	-0.324777	0.400981	-0.313763	0	0	-0.0585334	-0.30935	-0.128383	1.10448	-0.516548	0	0	-0.137471	0.150306	-0.20404	-0.254289	-0.264531	-0.111769	0.700013	0.428128	0	0	-0.0890655	-0.19378	-0.0319322	0.671884	1.5708	0	0
2.42	2.34103	1.38853	-0.672419	0.634231	1.79941	0.941741	0.0810577	0.107359	-0.320174	0.384099	-0.311254	0	0	-0.0309194	-0.306031	-0.108363	1.15097	-0.48904	0	0	-0.145166	0.147051	-0.204355	-0.251127	-0.262459	-0.111343	0.693399	0.427074	0	0	-0.097797	-0.193881	-0.0333875	0.665102	1.5708	0	0
2.43	2.37344	1.38827	-0.702994	0.635083	1.80878	0.943452	0.056708	0.108796	-0.315598	0.367689	-0.307326	0	0	-0.0034546	-0.300717	-0.0919261	1.19253	-0.441373	0	0	-0.150536	0.143262	-0.19793	-0.252523	-0.232812	-0.192741	0.686656	0.515444	0	0	-0.102006	-0.19511	-0.0253406	0.654786	1.5708	0	0
2.44	2.4075	1.38778	-0.736575	0.636022	1.81813	0.945139	0.0306295	0.11084	-0.309943	0.347531	-0.309773	0	0	0.0220545	-0.294876	-0.0796211	1.22866	-0.395297	0	0	-0.158061	0.137613	-0.204902	-0.242485	-0.248946	-0.135595	0.676462	0.465858	0	0	-0.122168	-0.193735	-0.0451402	0.661894	1.5708	0	0
2.45	2.43736	1.38874	-0.767452	0.637057	1.82746	0.946643	0.0078729	0.111294	-0.306262	0.331482	-0.307738	0	0	0.048125	-0.287859	-0.0706563	1.25925	-0.36291	0	0	-0.162387	0.131785	-0.202609	-0.239906	-0.245012	-0.140731	0.669779	0.470855	0	0	-0.134536	-0.194075	-0.0493504	0.661611	1.5708	0	0
